<?xml version="1.0" encoding="UTF-8"?>
<svg width="96" height="96" fill="#000000" version="1.1" viewBox="0 0 61.44 61.44" xml:space="preserve" xmlns="http://www.w3.org/2000/svg">
	<path d="m58.071 28.032-50.035-22.42c-4.322-1.9367-8.9847 1.9427-7.8683 6.5441l2.5912 10.68c0.36756 1.5146 1.354 2.8274 2.7065 3.6017l10.042 5.7498c0.80676 0.462 0.80856 1.6255 0 2.0886l-10.042 5.7498c-1.3525 0.77424-2.3389 2.0872-2.7065 3.6018l-2.5913 10.68c-1.114 4.5908 3.5407 8.4829 7.8683 6.5441l50.035-22.42c4.4946-2.014 4.4886-8.3896-1.21e-4 -10.401zm-14.959 7.2515-17.702 7.932c-1.1328 0.50736-2.4625 9.95e-4 -2.9702-1.1322-0.50772-1.1328-7.2e-4 -2.4628 1.1321-2.9702l13.124-5.8807-13.124-5.8807c-1.1328-0.50772-1.6398-1.8376-1.1321-2.9702 0.50748-1.1328 1.8371-1.6399 2.9702-1.1322l17.702 7.9321c1.7674 0.79164 1.7687 3.3098 0 4.1022z" stroke-width=".12"/>
</svg>
